<svg width="16" height="16" viewBox="0 0 16 16" fill="none" xmlns="http://www.w3.org/2000/svg">
    <g clip-path="url(#clip0_58_66)">
        <path d="M8 2L2 5V11L8 14L14 11V5L8 2Z" fill="white" stroke="white" stroke-width="4" stroke-linejoin="round" />
        <path fill-rule="evenodd" clip-rule="evenodd"
            d="M8.46535 1.11459L14.4261 4.09495C14.476 4.11851 14.5238 4.14609 14.5688 4.17727C14.5785 4.18397 14.5881 4.19085 14.5976 4.1979C14.6925 4.26844 14.7722 4.35388 14.835 4.44922C14.9158 4.57157 14.9705 4.71274 14.9911 4.86476C14.9942 4.88713 14.9964 4.90953 14.998 4.93192C15 4.96085 15.0007 4.98992 15.0002 5.01907V10.9879C15.0004 11.0081 15 11.0282 14.999 11.0482C14.981 11.4278 14.7514 11.7519 14.4255 11.9053L8.46198 14.887C8.43248 14.9024 8.40226 14.9162 8.37145 14.9285C8.13989 15.0214 7.8907 15.0215 7.66864 14.9435C7.6228 14.9274 7.57812 14.908 7.53499 14.8854L1.57429 11.905C1.52182 11.8803 1.47186 11.8511 1.42487 11.818C1.32052 11.7448 1.23356 11.654 1.16606 11.5518C1.07854 11.4198 1.02153 11.2657 1.00509 11.0998C1.0011 11.0604 0.999437 11.0207 1.00017 10.9809L1.00017 5.01745C0.998818 4.94383 1.00561 4.86954 1.021 4.79593C1.04836 4.66399 1.10171 4.54157 1.17545 4.43427C1.17873 4.4295 1.18205 4.42476 1.18541 4.42006C1.24707 4.33324 1.32325 4.25545 1.41258 4.19074C1.46326 4.15387 1.51754 4.12165 1.57479 4.09471L7.53839 1.11291C7.56776 1.09765 7.59784 1.08387 7.62851 1.07161C7.75842 1.01941 7.89389 0.996465 8.02701 1.00013C8.18025 1.00436 8.33039 1.04385 8.46535 1.11459ZM4.23636 4.99999L8.00015 6.88189L11.764 4.99998L8.00018 3.11808L4.23636 4.99999ZM3.00017 6.61796L3.00017 10.3819L8.00015 12.8819L13.0002 10.3819V6.61795L8.46196 8.88705C8.43254 8.90234 8.40241 8.91614 8.37169 8.92842C8.14006 9.02144 7.89078 9.02149 7.66864 8.9435C7.6228 8.9274 7.57811 8.90798 7.53497 8.88537L3.00017 6.61796Z"
            fill="#F43F5E" />
    </g>
    <defs>
        <clipPath id="clip0_58_66">
            <rect width="16" height="16" fill="white" />
        </clipPath>
    </defs>
</svg>