<svg width="16" height="16" viewBox="0 0 16 16" fill="none" xmlns="http://www.w3.org/2000/svg">
<rect width="16" height="16" rx="3" fill="#E63B64"/>
<path d="M6.27135 6.81224C6.01579 7.06785 6.01096 7.41027 6.27135 7.67071L8.33037 9.73503C8.59076 9.99547 8.93317 9.98099 9.18873 9.72538L9.77222 9.13211C9.6034 8.87167 9.62271 8.5389 9.84936 8.31221C10.0808 8.08552 10.4087 8.06143 10.6739 8.24466L13.4563 5.45694C14.1796 4.72384 14.1796 3.9425 13.4659 3.2335L12.7667 2.53416C12.0482 1.82035 11.2671 1.82035 10.5389 2.54381L7.75654 5.3219C7.93979 5.58235 7.91571 5.91996 7.68906 6.15147C7.46241 6.37334 7.12966 6.39743 6.85967 6.2238L6.27135 6.81224ZM9.02474 5.77527L11.2863 3.50842C11.3731 3.41678 11.5275 3.43126 11.6191 3.51325C11.7203 3.59524 11.7059 3.74957 11.6191 3.83639L9.35267 6.10324C9.25622 6.19488 9.11637 6.19005 9.0344 6.10324C8.93795 6.00677 8.93317 5.8669 9.02474 5.77527ZM9.90719 6.63861L12.1591 4.39105C12.2556 4.29941 12.4051 4.29458 12.4919 4.39105C12.5738 4.48751 12.5738 4.62737 12.4919 4.71419L10.2303 6.98103C10.1387 7.07751 9.99404 7.06302 9.90719 6.98103C9.80114 6.8749 9.80114 6.74468 9.90719 6.63861ZM3.00196 11.2398L2.07612 12.87C1.9845 13.0388 1.96521 13.1883 2.07612 13.3041L2.69335 13.9215C2.8139 14.0372 2.96339 14.0131 3.12252 13.9263L4.76203 12.9954C4.93562 12.899 5.05136 12.7157 5.061 12.5517L5.08993 12.0549L7.3997 9.74464L6.25687 8.60157L3.9471 10.907L3.45042 10.9408C3.28165 10.9504 3.0984 11.0614 3.00196 11.2398Z" fill="#E3E4E7"/>
</svg>
